<?xml version="1.0" standalone="no"?>
<!DOCTYPE svg PUBLIC "-//W3C//DTD SVG 20010904//EN"
 "http://www.w3.org/TR/2001/REC-SVG-20010904/DTD/svg10.dtd">
<svg version="1.0" xmlns="http://www.w3.org/2000/svg"
 width="1500.000000pt" height="1500.000000pt" viewBox="0 0 1500.000000 1500.000000"
 preserveAspectRatio="xMidYMid meet">
<metadata>
Created by potrace 1.14, written by Peter Selinger 2001-2017
</metadata>
<g transform="translate(0.000000,1500.000000) scale(0.100000,-0.100000)"
fill="#000000" stroke="none">
<path d="M7115 14670 c-1408 -70 -2774 -563 -3901 -1407 -951 -713 -1762
-1703 -2243 -2740 -359 -775 -550 -1518 -633 -2468 -19 -224 -16 -977 6 -1210
69 -749 213 -1372 461 -2000 433 -1097 1195 -2121 2195 -2950 567 -470 1256
-869 1955 -1133 1076 -406 2332 -538 3580 -376 1118 144 2193 574 3125 1248
483 350 987 824 1399 1316 1155 1381 1703 3056 1611 4925 -64 1302 -435 2464
-1117 3500 -296 448 -567 780 -973 1186 -331 332 -556 527 -887 770 -500 367
-1077 677 -1668 898 -624 232 -1335 381 -2055 431 -207 14 -667 20 -855 10z
m1095 -154 c847 -88 1548 -276 2255 -603 946 -437 1861 -1163 2561 -2033 769
-956 1252 -2049 1438 -3260 118 -767 121 -1421 10 -2179 -220 -1508 -880
-2815 -1974 -3911 -1150 -1153 -2487 -1825 -4028 -2025 -289 -37 -447 -47
-854 -52 -418 -5 -584 1 -898 33 -1200 122 -2297 533 -3260 1220 -329 235
-619 482 -935 799 -239 238 -379 394 -570 633 -735 919 -1199 1960 -1400 3137
-89 520 -126 1052 -106 1493 87 1879 792 3463 2117 4762 1221 1196 2636 1849
4319 1995 229 19 1109 14 1325 -9z"/>
<path d="M6990 14483 c-105 -18 -341 -88 -408 -122 -190 -96 -382 -254 -438
-361 -28 -54 -29 -58 -29 -215 1 -148 3 -166 28 -240 16 -44 64 -143 107 -220
140 -249 179 -352 209 -561 45 -305 40 -407 -31 -619 -37 -110 -61 -169 -196
-475 -43 -98 -46 -112 -50 -206 -5 -116 9 -176 64 -285 32 -65 36 -69 111
-106 l77 -38 241 0 240 0 51 27 c28 15 63 41 77 57 26 32 29 50 43 269 7 122
8 122 121 122 111 0 164 -21 239 -95 83 -82 127 -152 175 -275 90 -232 174
-357 271 -406 27 -14 112 -38 189 -54 114 -25 163 -30 273 -30 304 0 441 67
539 262 60 120 66 153 67 329 l0 146 -38 53 c-45 65 -122 126 -177 141 -27 8
-77 9 -155 3 -63 -5 -196 -8 -294 -7 -176 3 -180 3 -214 29 -46 36 -62 79 -62
168 l0 74 48 30 c26 17 92 50 147 75 251 112 473 221 536 263 53 35 86 68 141
142 111 147 126 187 212 577 41 185 57 335 46 419 -15 105 -87 188 -220 253
-77 38 -205 44 -313 14 -175 -48 -370 -163 -483 -285 -86 -92 -119 -147 -199
-329 -83 -192 -106 -236 -173 -337 -81 -123 -170 -209 -262 -253 -41 -19 -90
-38 -108 -42 -59 -12 -62 -2 -62 184 0 139 4 183 24 271 33 146 84 324 174
610 l77 245 -1 200 c-1 181 -4 209 -27 299 -52 197 -121 258 -331 295 -58 11
-205 13 -256 4z"/>
<path d="M5559 14044 c-26 -8 -88 -41 -138 -74 -50 -33 -113 -71 -139 -84 -74
-37 -224 -81 -377 -111 -77 -14 -197 -37 -268 -51 -126 -25 -321 -86 -401
-126 -76 -38 -143 -96 -205 -178 -127 -168 -175 -318 -175 -545 -1 -123 3
-153 29 -250 27 -105 29 -119 28 -316 -2 -258 -14 -332 -113 -689 -52 -186
-70 -296 -70 -422 0 -125 19 -153 163 -249 118 -78 187 -99 327 -99 177 0 298
34 588 166 193 88 252 104 395 104 88 0 130 -6 230 -31 220 -56 394 -51 480
15 71 54 73 63 54 276 -10 102 -35 291 -56 420 -55 326 -72 519 -78 851 -4
229 -2 316 12 435 22 201 48 338 90 484 47 164 47 223 0 318 -20 38 -53 86
-75 105 -68 62 -196 84 -301 51z m-733 -1579 c16 -10 26 -37 42 -117 85 -413
73 -472 -103 -508 -136 -28 -215 -13 -268 50 -33 38 -40 77 -36 183 4 78 8 92
58 192 59 119 125 197 182 214 40 11 95 5 125 -14z"/>
<path d="M10734 13539 c-23 -4 -93 -27 -155 -52 -63 -24 -126 -47 -140 -50
-14 -4 -144 -16 -288 -27 -413 -33 -462 -42 -579 -112 -88 -53 -127 -93 -197
-198 -90 -136 -153 -281 -196 -450 -6 -27 -14 -226 -19 -505 -5 -278 -15 -519
-24 -610 -38 -374 -7 -547 122 -667 56 -53 99 -68 254 -93 283 -45 445 -39
693 25 261 67 421 116 641 197 l209 76 111 1 111 1 48 -44 c80 -73 281 -155
408 -167 40 -3 126 -1 191 5 140 12 201 36 263 104 98 106 123 188 123 399 0
140 -2 152 -26 199 -42 84 -100 136 -299 267 -228 150 -268 183 -352 287 -155
194 -237 430 -298 860 -38 269 -53 313 -142 406 -61 64 -129 99 -250 129 -97
23 -156 28 -209 19z m-451 -1560 c98 -165 162 -247 230 -294 59 -40 59 -40 54
-82 -6 -54 -42 -102 -121 -160 -111 -83 -209 -113 -371 -113 -92 0 -146 14
-169 42 -17 21 -18 36 -13 183 4 93 13 187 23 225 20 82 104 261 138 295 24
23 32 26 93 23 l67 -3 69 -116z"/>
<path d="M3081 12564 c-101 -30 -203 -80 -291 -142 -90 -63 -340 -317 -427
-433 -73 -97 -229 -366 -310 -534 -78 -163 -121 -401 -148 -825 -16 -264 -23
-321 -60 -475 -71 -299 -166 -501 -434 -923 -176 -275 -225 -361 -316 -547
-113 -234 -115 -243 -118 -546 l-2 -256 49 -99 c59 -118 128 -192 229 -243
l67 -34 123 6 c101 5 137 11 212 37 123 43 314 136 470 228 l130 77 285 0
c280 -1 287 -1 385 -28 172 -48 395 -118 533 -168 115 -42 151 -51 255 -60
144 -14 349 -6 428 16 188 51 387 202 458 346 44 90 105 303 150 519 22 107
52 217 70 260 39 96 196 387 274 510 160 254 227 444 227 644 0 162 -46 278
-187 476 -97 136 -162 194 -288 254 -109 53 -191 70 -335 70 -142 0 -186 -12
-344 -91 -168 -84 -223 -125 -470 -355 -153 -142 -234 -207 -380 -306 -181
-123 -335 -182 -473 -182 -57 0 -68 3 -92 28 -15 15 -42 65 -60 112 -29 73
-33 97 -33 170 2 190 100 433 265 652 30 40 134 158 231 262 249 266 395 462
492 655 99 199 131 343 119 535 -4 60 -13 128 -20 151 -24 82 -118 200 -190
238 -36 20 -57 22 -215 24 -162 3 -181 1 -259 -23z m1026 -3263 c59 -27 66
-46 61 -165 -10 -210 -124 -411 -257 -450 -88 -26 -271 -21 -406 10 -60 13
-159 36 -220 50 -60 13 -120 27 -132 29 -30 7 -30 39 0 82 35 53 147 124 414
262 136 71 279 145 316 165 81 43 154 48 224 17z"/>
<path d="M12756 11169 c-123 -13 -189 -55 -362 -227 -139 -139 -156 -153 -244
-195 -139 -67 -220 -81 -434 -73 -448 16 -751 18 -840 6 -169 -23 -355 -97
-448 -180 -56 -49 -103 -129 -125 -210 -18 -68 -21 -226 -13 -715 l3 -190 -41
-145 c-49 -167 -52 -225 -19 -290 28 -58 89 -89 252 -132 111 -29 132 -31 285
-31 294 1 397 16 850 127 481 117 435 111 835 111 251 0 356 -3 371 -12 11 -6
33 -36 49 -65 27 -48 30 -62 30 -143 -1 -102 -16 -145 -87 -251 -43 -65 -76
-89 -218 -161 l-75 -38 -173 -3 c-282 -7 -490 24 -820 119 -439 127 -877 177
-1057 122 -125 -39 -198 -107 -236 -218 -21 -61 -18 -294 4 -370 26 -85 78
-157 149 -205 129 -86 288 -109 629 -92 249 12 303 22 609 111 263 76 325 84
580 78 248 -6 297 -14 573 -101 221 -69 287 -80 447 -73 276 13 520 85 701
208 88 59 216 185 250 244 21 37 29 63 29 101 0 81 -41 149 -195 318 -75 81
-162 180 -194 220 -130 159 -280 419 -367 638 -66 164 -98 209 -179 245 -37
16 -102 18 -845 24 -854 6 -847 6 -965 54 -153 64 -177 186 -50 260 89 52 181
68 400 68 230 0 281 -10 458 -87 58 -25 175 -63 272 -87 166 -43 173 -44 335
-44 127 0 180 4 230 18 147 40 265 118 329 217 56 86 75 163 75 300 -1 136
-13 176 -101 339 -50 93 -73 121 -178 226 -139 139 -193 173 -286 180 -35 3
-77 7 -94 9 -16 1 -61 -1 -99 -5z"/>
<path d="M5293 11011 c-78 -10 -122 -42 -157 -114 -35 -71 -43 -142 -23 -205
9 -26 75 -158 146 -293 120 -224 134 -258 181 -414 98 -323 95 -303 95 -630 0
-271 -1 -296 -23 -377 -43 -161 -83 -273 -122 -339 -60 -101 -202 -280 -323
-407 -136 -142 -179 -221 -179 -331 -1 -127 50 -181 249 -262 107 -43 109 -44
223 -43 94 0 129 5 195 26 419 132 423 133 925 133 374 0 422 -2 485 -19 48
-13 118 -20 227 -24 l157 -4 25 25 c23 23 26 34 26 95 0 130 -38 203 -199 382
-148 164 -177 213 -255 439 -52 150 -66 240 -66 437 0 149 17 251 70 415 71
224 119 328 229 499 237 370 265 705 73 902 -56 58 -126 89 -212 96 -55 4 -90
-2 -215 -36 -187 -51 -273 -62 -497 -62 -224 0 -300 11 -473 68 l-140 46 -180
2 c-99 1 -208 -1 -242 -5z"/>
<path d="M9650 10645 c-161 -36 -579 -112 -740 -136 -109 -16 -220 -22 -570
-29 -520 -10 -511 -9 -656 -128 -86 -71 -214 -243 -281 -377 -40 -79 -104
-263 -139 -400 -28 -107 -29 -117 -29 -355 1 -229 3 -254 28 -375 41 -189 87
-318 186 -515 105 -208 187 -350 284 -484 68 -95 74 -100 151 -137 123 -59
216 -79 366 -79 118 0 136 3 246 36 65 20 173 58 239 85 92 37 147 52 235 65
181 26 207 22 505 -86 82 -30 102 -33 240 -37 l150 -5 85 52 c99 60 141 98
178 160 26 43 27 52 27 175 l0 130 -46 95 c-26 52 -72 137 -102 189 -60 99
-141 283 -163 366 -19 69 -18 320 1 429 17 97 38 155 120 341 107 242 142 372
152 565 4 88 2 130 -10 177 -34 130 -101 224 -191 268 -75 37 -132 39 -266 10z
m-1115 -1356 c33 -6 70 -17 83 -25 28 -19 92 -145 127 -254 22 -67 29 -110 33
-207 l4 -121 -25 -17 c-53 -34 -259 -115 -294 -115 -20 0 -59 7 -87 15 -28 8
-70 20 -93 25 -37 9 -48 19 -90 83 l-48 72 0 160 c0 151 1 163 26 215 30 65
130 177 162 182 31 6 132 -1 202 -13z"/>
<path d="M13251 7247 c-6 -8 -20 -92 -31 -187 -11 -95 -24 -178 -29 -183 -6
-6 -22 0 -44 17 -36 28 -94 35 -115 14 -17 -17 -15 -123 3 -157 8 -16 31 -36
52 -45 21 -9 45 -21 53 -25 64 -34 -47 -580 -240 -1186 -27 -87 -50 -177 -50
-200 0 -38 3 -44 31 -56 37 -15 42 -10 90 83 37 74 105 146 121 130 9 -9 5
-33 -15 -99 -34 -112 -35 -133 -3 -133 22 0 28 10 57 98 17 53 36 103 41 109
18 23 118 -9 118 -37 0 -10 -11 -61 -25 -112 -32 -120 -32 -138 0 -138 20 0
26 7 35 43 36 135 51 182 60 191 6 6 28 5 62 -3 87 -19 85 -15 44 -137 -39
-120 -44 -152 -21 -160 26 -10 40 12 75 122 42 128 51 137 133 121 31 -6 57
-16 57 -22 0 -6 -18 -58 -39 -116 -22 -57 -42 -121 -46 -141 -7 -36 -6 -38 18
-38 23 0 29 9 57 82 57 147 73 173 119 187 47 14 52 33 16 57 -14 9 -25 25
-25 36 0 11 32 151 71 312 121 503 173 799 204 1164 21 251 20 385 -2 403 -24
21 -815 26 -832 6z m183 -50 c10 -7 17 -22 14 -33 -3 -15 -13 -20 -58 -22 -29
-2 -64 -1 -77 3 -28 7 -31 39 -5 54 25 15 105 13 126 -2z m204 4 c8 -4 12 -19
10 -32 -3 -22 -7 -24 -67 -24 -51 0 -66 4 -75 18 -9 15 -7 21 8 33 21 15 103
19 124 5z m212 -26 c0 -29 -25 -38 -86 -33 -34 3 -39 6 -42 31 l-3 27 65 0
c64 0 66 -1 66 -25z m184 9 c25 -10 20 -51 -6 -58 -30 -8 -82 -8 -102 0 -19 7
-21 50 -3 57 18 8 93 8 111 1z m-621 -249 c-2 -170 -7 -202 -34 -210 -30 -10
-126 4 -132 18 -4 12 17 242 28 305 l6 33 67 -3 67 -3 -2 -140z m224 129 c7
-19 -24 -294 -37 -328 -10 -26 -61 -41 -104 -30 -26 6 -26 7 -26 114 0 59 3
141 6 183 l7 77 74 0 c58 0 75 -3 80 -16z m203 -49 c0 -79 -44 -523 -65 -651
-23 -144 -46 -184 -59 -103 l-6 40 -45 -7 c-41 -6 -45 -4 -45 14 0 31 30 295
35 310 3 7 22 12 49 12 31 0 46 5 50 16 9 24 -2 34 -37 34 -48 0 -61 12 -54
51 4 19 14 95 22 169 9 74 18 143 21 152 6 20 23 25 87 27 l47 1 0 -65z m166
45 l27 -11 -6 -162 c-7 -168 -46 -468 -92 -702 -22 -107 -153 -668 -183 -780
-8 -27 -13 -30 -53 -33 -25 -2 -57 2 -71 7 -24 9 -25 13 -18 43 5 18 47 184
93 368 47 184 94 352 105 372 14 26 21 67 26 140 3 57 17 204 31 328 14 124
28 265 31 313 8 119 34 146 110 117z m-637 -409 c13 -8 13 -32 -4 -183 -10
-95 -23 -179 -28 -186 -6 -7 -25 -19 -44 -27 -38 -16 -47 -55 -13 -55 11 0 23
-6 26 -14 3 -8 -22 -119 -55 -248 -33 -128 -63 -264 -67 -302 -5 -51 -13 -74
-30 -94 -13 -14 -24 -30 -24 -36 0 -6 -5 -3 -11 7 -14 24 -38 21 -92 -12 -29
-19 -54 -46 -68 -73 -12 -24 -24 -38 -26 -31 -2 6 2 24 10 40 15 30 83 256
141 468 40 147 60 239 111 510 46 241 44 233 63 238 31 8 97 7 111 -2z m221
-43 c0 -48 -27 -240 -40 -287 -9 -36 -14 -41 -40 -41 -17 0 -34 8 -42 19 -7
10 -23 21 -35 25 -28 9 -29 31 -7 169 24 151 21 147 99 147 l65 0 0 -32z
m-141 -419 c12 -11 26 -32 32 -46 14 -39 11 -104 -7 -124 -15 -17 -20 -17 -51
-4 -46 19 -55 12 -51 -39 3 -36 0 -41 -19 -44 -15 -2 -25 -13 -29 -28 -10 -40
1 -54 44 -54 43 0 54 9 70 55 19 55 12 -1 -13 -103 -28 -113 -62 -212 -74
-212 -4 0 -18 11 -31 25 -14 15 -35 25 -52 25 -15 0 -28 5 -28 11 0 6 20 79
45 163 25 83 56 201 68 261 12 61 26 116 30 123 12 18 40 15 66 -9z m207 -45
c61 -40 63 -46 39 -139 -22 -84 -33 -92 -89 -71 -68 26 -71 33 -57 134 12 77
27 112 49 112 3 0 29 -16 58 -36z m-89 -259 c54 -23 73 -44 73 -80 0 -28 -73
-299 -99 -367 -6 -16 -18 -28 -28 -28 -30 0 -134 27 -144 37 -5 5 5 35 26 74
19 37 53 131 75 214 23 82 44 153 46 157 7 11 9 10 51 -7z"/>
<path d="M1215 7239 c-229 -14 -337 -27 -353 -42 -12 -12 -12 -39 -4 -168 10
-165 7 -184 -34 -199 -41 -16 -130 -12 -148 6 -31 31 -9 54 51 54 46 0 63 17
63 64 0 40 -27 59 -77 53 -59 -6 -89 -36 -103 -102 -9 -43 -8 -60 4 -88 18
-44 57 -57 169 -57 92 0 88 5 106 -145 28 -235 156 -802 243 -1074 93 -293
193 -569 262 -723 21 -48 30 -58 51 -58 37 0 33 22 -30 180 -30 76 -55 147
-55 157 0 29 32 53 69 53 23 0 34 -5 38 -17 2 -10 28 -81 57 -158 42 -115 55
-140 71 -140 34 0 28 42 -25 195 -46 134 -49 146 -33 158 55 40 99 -14 173
-218 24 -65 31 -75 51 -75 21 0 24 4 22 35 -1 19 -20 79 -42 132 -58 138 -55
178 13 178 16 0 25 -9 34 -33 7 -20 28 -44 50 -58 32 -21 39 -32 50 -84 7 -33
17 -67 21 -75 13 -24 36 -18 38 10 2 14 8 66 14 116 13 109 8 123 -68 182 -40
32 -56 53 -72 97 -28 75 -27 83 12 90 81 15 85 11 127 -115 45 -136 113 -291
133 -304 23 -15 50 1 43 24 -3 11 -9 29 -12 40 -12 40 24 20 88 -49 50 -52 72
-86 93 -140 24 -60 32 -71 49 -69 18 3 21 9 18 47 -4 65 -47 146 -117 219 -58
62 -66 67 -115 72 l-53 5 -49 130 c-135 360 -248 801 -312 1216 -14 91 -26
188 -26 215 l0 51 85 32 c71 27 86 36 91 58 4 14 2 33 -3 42 -11 17 -73 45
-141 61 -54 14 -68 36 -81 134 -6 43 -14 82 -17 87 -6 11 -221 9 -419 -2z
m376 -79 c4 -19 9 -60 10 -90 l3 -55 -58 -3 c-77 -4 -86 5 -86 88 0 99 2 101
68 98 55 -3 56 -4 63 -38z m-188 -34 c5 -32 6 -60 3 -63 -10 -10 -141 62 -144
80 -7 34 17 48 77 45 l56 -3 8 -59z m-205 32 c3 -16 -5 -18 -57 -18 -44 0 -61
4 -61 13 0 23 13 28 65 25 38 -2 51 -7 53 -20z m-180 -25 c3 -17 -6 -27 -35
-43 -21 -11 -48 -27 -60 -36 -23 -16 -23 -16 -23 25 0 68 13 83 68 79 40 -3
47 -6 50 -25z m165 -79 c39 -13 47 -20 47 -40 0 -35 -21 -39 -79 -13 -45 19
-71 42 -71 63 0 11 57 6 103 -10z m-153 -61 c0 -7 -9 -13 -21 -13 -14 0 -25
-11 -35 -35 -18 -44 -11 -58 27 -50 43 10 36 -12 -8 -24 -52 -15 -61 -14 -73
9 -17 31 -2 66 47 111 35 32 47 38 54 28 5 -8 9 -20 9 -26z m384 -106 c14 -10
22 -47 38 -181 11 -92 17 -170 14 -173 -3 -3 -17 4 -32 16 -15 12 -44 24 -65
27 -44 7 -44 8 -60 149 -10 86 -10 105 4 138 14 32 20 37 50 37 18 0 41 -6 51
-13z m168 -57 c21 -6 39 -14 42 -18 2 -4 19 -102 36 -217 17 -116 43 -263 57
-328 14 -65 23 -120 20 -123 -2 -3 -16 0 -31 6 -15 5 -37 10 -50 10 -43 0 -56
22 -82 135 -13 60 -22 115 -20 122 3 7 20 16 38 21 23 6 34 15 36 30 3 20 -1
22 -37 22 -51 0 -56 9 -70 130 -19 166 -20 176 -14 198 6 24 21 27 75 12z
m-322 -153 c6 -37 8 -72 5 -78 -4 -5 -23 -16 -43 -25 -20 -8 -44 -24 -53 -36
-16 -21 -17 -20 -27 33 -26 136 -29 122 35 156 32 17 61 28 65 24 4 -3 12 -37
18 -74z m-207 24 c6 -6 19 -63 29 -127 23 -137 20 -144 -63 -144 -54 0 -50 -9
-70 162 -16 134 -14 138 47 127 27 -5 52 -13 57 -18z m261 -323 c3 -18 10 -75
17 -127 13 -110 7 -120 -63 -128 -54 -6 -63 4 -73 75 -7 50 -6 52 17 52 60 1
63 44 3 56 -28 5 -40 14 -53 40 -8 19 -13 37 -9 40 5 6 83 18 138 23 11 1 19
-10 23 -31z m-214 -65 c23 -61 50 -167 50 -196 0 -12 -16 -24 -46 -38 -26 -11
-48 -18 -50 -16 -6 6 -54 255 -54 281 0 24 4 26 39 26 39 0 40 -1 61 -57z
m425 -64 c20 -82 17 -89 -51 -89 -55 0 -76 18 -78 65 -1 36 2 41 35 56 19 10
41 24 48 33 20 24 27 13 46 -65z m56 -160 c4 -7 11 -43 14 -79 4 -36 18 -119
31 -185 35 -173 37 -164 -43 -180 -28 -6 -34 -3 -42 17 -13 32 -113 392 -114
414 -2 13 7 21 28 25 43 11 116 3 126 -12z m-222 -37 c12 -23 106 -344 115
-394 6 -35 5 -38 -20 -44 -15 -4 -43 -7 -63 -8 l-35 -1 -34 110 c-68 225 -91
323 -79 333 31 25 103 28 116 4z m-191 -34 c5 -7 32 -96 60 -198 71 -256 67
-236 42 -250 -21 -11 -22 -17 -18 -115 2 -57 3 -103 2 -102 -11 11 -184 624
-184 649 0 26 79 38 98 16z m606 -64 c9 -8 22 -39 30 -67 46 -162 65 -241 60
-248 -9 -15 -22 -10 -29 11 -5 16 -15 20 -50 20 -35 0 -48 5 -59 23 -19 30
-70 242 -63 262 9 21 90 21 111 -1z m-60 -371 c2 -10 8 -43 11 -73 4 -30 19
-86 32 -124 16 -43 21 -72 15 -78 -5 -5 -34 -12 -65 -15 -65 -7 -58 -15 -101
132 -42 147 -43 151 -10 163 49 18 112 15 118 -5z m-210 -45 c15 -24 76 -232
76 -260 0 -19 -20 -28 -61 -28 -27 0 -33 6 -53 53 -37 85 -78 216 -71 227 21
33 90 38 109 8z m-125 -185 c55 -137 55 -137 -17 -149 l-42 -7 0 139 c0 79 4
134 9 129 4 -6 27 -56 50 -112z"/>
<path d="M3712 7172 c-20 -20 -54 -50 -74 -66 -28 -21 -38 -36 -38 -57 0 -15
4 -30 10 -34 7 -5 47 9 93 33 4 2 7 -27 7 -65 0 -37 3 -112 7 -165 l6 -98 37
0 c34 0 38 3 44 31 12 60 7 434 -6 447 -21 21 -48 13 -86 -26z"/>
<path d="M2614 7187 c-2 -7 -3 -114 -2 -237 l3 -225 33 -3 c53 -5 59 7 64 127
3 90 7 113 22 130 21 24 68 28 85 8 6 -8 14 -69 18 -138 l8 -124 37 -3 c55 -5
62 16 55 157 -6 132 -16 164 -62 186 -41 19 -76 19 -122 0 -19 -8 -37 -15 -39
-15 -2 0 -4 28 -4 63 0 36 -5 68 -12 75 -16 16 -77 15 -84 -1z"/>
<path d="M5770 7185 c-7 -8 -10 -25 -6 -40 5 -21 12 -25 46 -25 45 0 63 21 49
58 -6 17 -16 22 -42 22 -19 0 -40 -7 -47 -15z"/>
<path d="M7164 7187 c-2 -7 -3 -114 -2 -237 l3 -225 36 -3 c31 -3 37 1 43 20
12 45 7 433 -6 446 -16 16 -67 15 -74 -1z"/>
<path d="M8550 7175 c-6 -14 -10 -47 -10 -72 0 -42 -2 -45 -22 -39 -69 20
-113 18 -148 -6 -50 -33 -70 -80 -70 -161 0 -77 23 -133 64 -160 30 -20 108
-22 150 -4 26 11 32 11 47 -4 26 -26 66 -14 73 23 8 41 6 387 -3 418 -5 19
-14 26 -39 28 -27 3 -34 -1 -42 -23z m-36 -191 c22 -21 29 -57 23 -110 -6 -58
-21 -74 -68 -74 -33 0 -41 5 -54 30 -22 43 -19 112 6 144 24 30 69 35 93 10z"/>
<path d="M9154 7188 c-11 -18 -18 -283 -9 -383 l7 -86 41 3 42 3 5 116 c4 96
8 121 24 138 21 23 70 28 83 9 4 -7 13 -69 18 -138 l10 -125 41 -3 42 -3 7 70
c8 85 -2 206 -21 243 -25 49 -102 58 -186 23 -16 -6 -18 0 -18 57 0 36 -5 69
-12 76 -16 16 -65 15 -74 0z"/>
<path d="M11325 7178 c-3 -13 -4 -120 -3 -238 l3 -215 40 0 40 0 3 215 c1 118
0 225 -3 238 -4 17 -12 22 -40 22 -28 0 -36 -5 -40 -22z"/>
<path d="M11747 7194 c-4 -4 -7 -33 -7 -65 0 -32 -4 -60 -9 -63 -4 -3 -33 0
-63 6 -48 10 -59 9 -93 -8 -62 -30 -79 -63 -83 -153 -5 -91 18 -150 68 -176
34 -18 94 -19 139 -4 27 9 35 8 51 -6 13 -12 27 -15 50 -10 l30 7 -2 236 -3
237 -35 3 c-20 2 -39 0 -43 -4z m-42 -214 c23 -25 31 -101 15 -141 -22 -53
-93 -59 -119 -10 -19 35 -13 115 10 145 25 32 68 35 94 6z"/>
<path d="M11920 7181 c-16 -31 -12 -59 10 -71 24 -13 26 -33 5 -50 -20 -16
-19 -50 1 -50 44 0 74 47 74 117 0 50 -16 73 -50 73 -19 0 -33 -7 -40 -19z"/>
<path d="M5589 7167 c-19 -12 -42 -39 -52 -60 -9 -20 -22 -37 -27 -37 -18 0
-10 -56 10 -75 17 -16 20 -31 20 -109 0 -111 18 -156 68 -170 49 -14 96 3 100
36 3 21 -3 30 -26 42 -33 17 -42 46 -42 130 0 55 12 76 42 76 14 0 18 8 18 34
0 29 -5 36 -30 45 -28 9 -30 13 -30 60 0 28 -4 51 -9 51 -4 0 -23 -10 -42 -23z"/>
<path d="M2422 7151 c-41 -43 -82 -103 -82 -117 0 -8 11 -20 24 -29 21 -14 24
-25 30 -127 7 -125 19 -153 66 -163 34 -7 87 2 96 16 12 20 -6 57 -30 63 -29
7 -39 58 -30 142 6 47 11 57 31 65 20 7 24 15 21 41 -2 25 -8 34 -25 36 -19 3
-24 12 -29 53 -8 59 -30 65 -72 20z"/>
<path d="M4390 7167 c-14 -7 -33 -28 -42 -48 -9 -19 -23 -41 -32 -48 -22 -19
-20 -47 5 -70 19 -17 22 -34 27 -135 5 -128 12 -143 73 -152 50 -8 89 10 89
41 0 20 -7 29 -30 37 -36 12 -42 31 -38 123 3 65 5 71 31 83 23 11 28 19 25
45 -2 24 -9 33 -28 37 -22 5 -25 12 -28 53 -3 50 -11 55 -52 34z"/>
<path d="M8963 7174 c-6 -3 -30 -34 -53 -69 -43 -66 -44 -83 -6 -115 12 -9 16
-32 16 -94 0 -140 25 -186 102 -186 28 0 41 6 53 24 17 25 11 56 -10 56 -32 0
-45 30 -45 108 0 84 5 98 35 103 15 3 20 12 20 39 0 28 -4 35 -25 40 -22 5
-25 12 -28 53 -3 41 -6 47 -25 46 -12 0 -27 -3 -34 -5z"/>
<path d="M3095 7066 c-64 -29 -94 -87 -95 -184 0 -89 54 -155 136 -168 63 -9
115 9 154 53 31 34 31 37 14 50 -26 19 -57 16 -87 -7 -35 -28 -71 -25 -96 6
-35 44 -15 54 105 54 l104 0 0 28 c0 53 -30 121 -67 149 -41 32 -121 41 -168
19z m106 -76 c23 -13 25 -55 3 -64 -45 -17 -94 -2 -94 30 0 37 49 56 91 34z"/>
<path d="M4015 7066 c-47 -21 -68 -50 -68 -98 0 -54 27 -76 129 -108 81 -26
92 -34 75 -54 -21 -25 -51 -25 -98 0 -88 47 -153 9 -83 -49 102 -87 290 -41
290 70 0 60 -19 78 -125 113 -52 17 -95 35 -95 39 0 14 24 31 45 31 11 0 38
-9 59 -21 75 -40 129 2 71 55 -40 37 -141 48 -200 22z"/>
<path d="M4762 7072 c-9 -7 -12 -49 -10 -178 l3 -169 38 -3 c24 -2 39 1 42 10
3 7 9 61 13 120 9 116 24 148 67 148 50 0 58 -18 64 -151 l6 -124 40 0 40 0 3
135 c3 155 -5 186 -54 206 -43 18 -76 18 -121 -1 -32 -14 -38 -14 -53 0 -18
16 -57 20 -78 7z"/>
<path d="M5225 7066 c-39 -17 -68 -50 -63 -73 4 -24 60 -29 90 -9 38 27 98 18
98 -15 0 -13 -12 -21 -42 -29 -101 -27 -121 -35 -145 -64 -20 -24 -24 -37 -20
-69 10 -76 77 -110 165 -85 29 9 56 12 64 7 7 -5 30 -9 50 -9 l37 0 -6 143
c-3 78 -11 153 -17 167 -20 45 -144 66 -211 36z m125 -213 c0 -36 -9 -49 -42
-62 -22 -8 -31 -6 -50 9 -29 24 -17 50 33 67 51 18 59 16 59 -14z"/>
<path d="M5771 7061 c-13 -23 -15 -310 -2 -329 5 -8 23 -12 47 -10 34 3 40 7
45 33 9 40 9 207 1 270 -7 49 -8 50 -44 53 -28 2 -39 -1 -47 -17z"/>
<path d="M6054 7071 c-78 -19 -114 -75 -114 -176 0 -99 36 -153 118 -175 90
-23 180 17 222 100 18 34 17 129 -2 165 -39 75 -127 109 -224 86z m89 -83 c35
-18 46 -40 47 -86 0 -43 -13 -81 -34 -94 -22 -15 -76 -8 -96 12 -31 31 -28
123 5 155 27 28 46 31 78 13z"/>
<path d="M6377 7073 c-4 -3 -7 -84 -7 -180 l0 -173 39 0 c48 0 51 7 51 118 0
114 19 157 70 157 45 0 60 -28 60 -116 0 -36 3 -87 6 -113 7 -45 7 -46 44 -46
46 0 50 11 49 125 -1 124 -12 185 -38 206 -34 28 -85 33 -139 16 -41 -14 -49
-14 -63 -1 -16 14 -61 19 -72 7z"/>
<path d="M6843 7069 c-32 -9 -73 -51 -73 -74 0 -27 79 -35 100 -10 16 19 74
19 90 0 17 -20 5 -33 -43 -45 -89 -23 -129 -42 -148 -74 -24 -39 -24 -63 0
-102 28 -46 68 -59 140 -45 33 7 83 9 116 5 l57 -7 -5 29 c-3 16 -9 83 -12
149 -4 76 -12 128 -21 142 -24 38 -125 54 -201 32z m117 -216 c0 -33 -8 -46
-35 -60 -33 -17 -67 1 -63 34 2 22 11 31 38 40 52 18 60 16 60 -14z"/>
<path d="M7580 7063 c-19 -10 -41 -30 -50 -46 -13 -24 -13 -29 0 -37 22 -14
64 -12 86 5 29 22 81 19 94 -5 12 -23 4 -28 -94 -55 -95 -26 -131 -79 -102
-149 25 -61 117 -82 190 -44 12 7 22 6 29 -1 6 -6 30 -11 54 -11 l43 0 -6 58
c-3 31 -9 102 -12 156 -7 92 -9 100 -34 119 -38 29 -151 35 -198 10z m128
-220 c-2 -30 -9 -41 -30 -51 -38 -18 -70 -1 -66 36 2 21 11 29 43 38 57 18 57
18 53 -23z"/>
<path d="M7915 7070 c-12 -20 -17 -141 -10 -243 l7 -107 39 0 c21 0 39 1 40 3
0 1 4 55 8 119 8 130 21 158 71 158 44 0 54 -22 60 -144 4 -62 10 -118 14
-124 4 -7 22 -12 41 -12 31 0 35 3 41 37 10 54 -4 239 -20 271 -27 52 -102 67
-168 33 -36 -18 -38 -18 -54 0 -18 20 -59 26 -69 9z"/>
<path d="M9625 7066 c-59 -26 -95 -93 -95 -175 0 -123 79 -193 197 -175 75 11
145 89 97 108 -30 11 -55 6 -89 -20 -28 -21 -37 -23 -54 -14 -27 14 -55 56
-46 70 4 6 47 10 104 10 121 0 129 6 110 82 -14 63 -50 102 -105 117 -51 14
-82 13 -119 -3z m116 -87 c11 -11 19 -26 16 -32 -6 -19 -68 -30 -99 -18 -33
13 -35 24 -8 51 26 26 64 26 91 -1z"/>
<path d="M10084 7066 c-5 -14 19 -106 72 -268 l26 -78 44 0 c50 0 49 -2 84
118 11 39 22 72 25 72 4 0 15 -33 40 -123 18 -66 43 -85 87 -68 22 8 31 28 71
148 24 76 48 153 52 171 l7 33 -44 -3 -43 -3 -30 -87 c-16 -47 -33 -89 -36
-93 -4 -3 -17 33 -30 81 -25 94 -38 114 -74 114 -32 0 -52 -23 -65 -73 -18
-69 -32 -112 -40 -120 -3 -4 -17 27 -29 70 -29 102 -44 123 -82 123 -16 0 -32
-6 -35 -14z"/>
<path d="M10735 7069 c-71 -27 -108 -87 -108 -174 0 -67 18 -112 59 -144 70
-55 186 -48 249 15 39 38 50 79 43 160 -5 61 -28 99 -76 127 -38 22 -126 31
-167 16z m106 -82 c38 -29 52 -104 28 -150 -16 -29 -28 -37 -62 -37 -43 0 -65
17 -78 59 -26 88 50 176 112 128z"/>
<path d="M11061 7066 c-8 -9 -11 -65 -9 -177 l3 -164 40 0 40 0 9 90 c12 135
21 164 54 171 58 12 72 22 72 53 0 43 -54 56 -99 25 -22 -16 -24 -16 -33 0
-11 20 -61 21 -77 2z"/>
<path d="M12132 7069 c-20 -6 -40 -22 -52 -42 -47 -76 -9 -132 111 -168 86
-25 99 -34 79 -53 -29 -27 -65 -27 -100 -1 -35 26 -84 32 -110 15 -12 -9 -8
-17 29 -50 24 -22 62 -45 84 -51 76 -20 165 8 192 61 39 76 2 128 -121 165
-55 17 -84 31 -84 40 0 23 48 30 86 11 45 -21 103 -21 111 0 8 21 -33 62 -76
74 -44 12 -105 12 -149 -1z"/>
<path d="M12833 6989 c-23 -11 -58 -38 -78 -60 -33 -37 -35 -43 -35 -106 0
-82 27 -143 78 -178 78 -53 114 -14 42 44 -40 32 -40 32 -40 101 0 86 11 116
52 138 38 20 78 57 78 72 0 17 -52 11 -97 -11z"/>
<path d="M9313 6362 c-39 -12 -63 -40 -75 -88 -9 -31 -20 -50 -35 -57 -33 -15
-31 -60 2 -75 24 -11 25 -15 25 -104 0 -51 3 -110 6 -130 6 -35 9 -38 41 -38
45 0 53 23 53 156 l0 105 31 11 c26 9 30 15 27 41 -2 24 -9 33 -28 37 -18 4
-25 13 -25 30 0 20 7 26 37 33 39 9 57 42 35 64 -16 16 -66 24 -94 15z"/>
<path d="M7062 6348 c-7 -7 -12 -38 -12 -73 0 -34 -3 -64 -6 -67 -3 -4 -21 0
-39 8 -113 47 -204 -30 -205 -170 0 -40 7 -74 20 -102 36 -74 90 -95 175 -69
50 16 57 16 73 2 10 -9 27 -13 43 -10 35 7 39 32 38 253 -2 219 -4 234 -44
238 -17 2 -36 -3 -43 -10z m-52 -208 c44 -24 49 -123 9 -174 -45 -58 -119 -6
-119 83 0 80 51 122 110 91z"/>
<path d="M4696 6317 c-25 -14 -42 -32 -47 -49 -4 -15 -16 -40 -28 -57 -26 -36
-26 -39 2 -69 19 -21 23 -37 27 -134 5 -100 7 -112 29 -129 25 -21 81 -25 112
-9 29 16 24 56 -8 72 -27 13 -28 16 -31 100 -3 86 -3 87 25 100 40 19 44 63 6
75 -24 8 -29 17 -38 66 l-10 56 -39 -22z"/>
<path d="M8847 6309 c-20 -17 -37 -39 -37 -50 0 -10 -9 -27 -20 -36 -25 -22
-26 -64 -2 -84 16 -13 20 -36 24 -121 3 -58 11 -114 16 -125 13 -24 73 -36
117 -25 22 6 31 15 33 35 3 22 -3 29 -32 41 l-36 15 0 85 c0 83 1 85 28 98 19
9 27 21 27 38 0 17 -8 29 -27 38 -26 12 -28 18 -28 68 0 64 -9 67 -63 23z"/>
<path d="M5669 6315 c-15 -8 -32 -28 -38 -45 -5 -17 -19 -43 -31 -57 -25 -32
-25 -35 4 -70 23 -27 24 -36 23 -132 -2 -101 -2 -103 26 -127 46 -39 137 -28
137 17 0 12 -12 27 -30 37 -37 21 -42 37 -38 127 3 64 5 70 28 75 21 5 25 12
25 40 0 28 -4 35 -25 40 -22 5 -25 12 -28 58 -3 56 -10 61 -53 37z"/>
<path d="M3284 6216 c-48 -21 -77 -70 -82 -138 -12 -156 76 -243 195 -193 45
19 43 20 43 -13 0 -18 -10 -38 -25 -52 -24 -22 -28 -23 -58 -11 -60 25 -131
41 -140 32 -15 -15 20 -79 54 -96 47 -25 177 -18 216 11 46 34 54 77 51 272
-3 198 -7 207 -71 184 -28 -10 -40 -10 -70 3 -44 18 -72 18 -113 1z m130 -85
c57 -63 25 -181 -50 -181 -35 0 -64 45 -64 100 0 83 68 132 114 81z"/>
<path d="M3757 6219 c-11 -7 -37 -8 -64 -4 -33 5 -48 3 -54 -7 -5 -7 -9 -86
-9 -175 l0 -163 39 0 c45 0 50 11 51 100 1 67 14 138 28 152 6 6 25 13 43 17
43 9 70 51 50 75 -15 18 -57 21 -84 5z"/>
<path d="M3950 6209 c-61 -35 -80 -74 -80 -163 0 -86 14 -123 57 -154 37 -25
112 -36 162 -22 40 10 91 59 91 86 0 20 -60 18 -104 -2 -20 -10 -44 -14 -60
-10 -27 7 -51 40 -41 56 3 6 51 10 106 10 98 0 100 0 109 26 22 56 -30 152
-97 180 -46 20 -102 17 -143 -7z m118 -75 c12 -8 22 -24 22 -35 0 -17 -7 -19
-60 -19 -66 0 -77 13 -40 50 24 24 48 25 78 4z"/>
<path d="M4323 6216 c-37 -17 -68 -59 -59 -81 7 -20 79 -20 96 0 25 30 95 14
88 -20 -2 -12 -26 -24 -81 -40 -95 -27 -122 -50 -122 -105 0 -85 77 -128 170
-97 38 12 51 12 70 3 13 -7 39 -10 58 -8 33 4 35 6 26 29 -5 13 -9 66 -9 116
0 167 -26 207 -137 214 -46 2 -79 -1 -100 -11z m133 -218 c-7 -36 -38 -68 -66
-68 -24 0 -52 34 -44 54 3 9 7 16 8 16 0 0 19 7 41 15 62 22 68 20 61 -17z"/>
<path d="M4931 6213 c-81 -40 -116 -172 -69 -262 35 -68 63 -84 148 -85 72 0
72 0 111 42 21 22 39 46 39 51 0 6 -16 13 -36 17 -28 5 -42 2 -64 -15 -36 -26
-71 -27 -93 -3 -31 34 -22 52 26 52 23 0 73 3 111 7 l68 6 -5 50 c-15 127
-127 193 -236 140z m119 -83 c37 -37 26 -50 -40 -50 -65 0 -77 14 -43 52 21
24 58 23 83 -2z"/>
<path d="M5279 6207 c-63 -42 -73 -103 -25 -151 12 -13 53 -33 92 -46 103 -34
122 -62 49 -76 -28 -5 -40 -1 -66 20 -33 28 -75 34 -103 13 -17 -12 -15 -16
20 -46 47 -42 92 -61 144 -61 121 0 192 105 123 179 -19 20 -55 38 -110 56
-46 15 -83 31 -83 36 0 5 11 15 25 21 21 9 34 7 75 -12 41 -19 54 -21 75 -12
31 14 32 32 3 60 -53 48 -161 58 -219 19z"/>
<path d="M6083 6210 c-18 -10 -40 -31 -49 -45 -15 -23 -15 -28 -3 -36 22 -14
67 -11 94 7 13 8 36 14 52 12 22 -2 28 -8 28 -27 0 -21 -8 -26 -70 -43 -88
-23 -125 -59 -125 -119 0 -77 76 -116 167 -86 31 10 53 12 64 6 10 -5 34 -9
55 -9 l37 0 -6 68 c-4 37 -7 100 -7 141 0 72 -1 74 -39 112 -37 37 -42 39
-102 39 -46 0 -73 -6 -96 -20z m130 -223 c-8 -40 -46 -63 -78 -49 -27 12 -33
43 -12 60 17 14 80 31 89 23 3 -3 4 -19 1 -34z"/>
<path d="M6541 6213 c-26 -13 -37 -14 -52 -5 -28 18 -57 14 -69 -8 -6 -12 -9
-78 -8 -172 l3 -153 34 -3 c44 -4 51 7 51 98 0 122 25 180 75 180 42 0 55 -34
55 -146 0 -56 3 -109 6 -118 8 -22 80 -22 88 0 3 9 6 68 6 132 0 130 -14 176
-60 199 -35 17 -89 16 -129 -4z"/>
<path d="M7557 6219 c-12 -7 -40 -8 -72 -4 -32 4 -56 2 -59 -4 -4 -6 -7 -81
-7 -168 0 -170 5 -188 54 -175 33 8 37 19 37 122 0 107 12 140 54 155 45 15
56 -10 56 -129 0 -141 3 -148 54 -144 l41 3 8 120 c8 124 20 155 58 155 40 0
49 -26 49 -143 0 -62 4 -118 9 -125 5 -8 23 -12 47 -10 l39 3 0 147 c0 146 0
148 -26 174 -38 38 -106 44 -153 14 l-36 -22 -34 21 c-36 23 -90 27 -119 10z"/>
<path d="M8105 6216 c-37 -17 -80 -62 -94 -99 -16 -42 -13 -124 6 -164 9 -19
34 -46 55 -60 32 -22 50 -26 107 -26 79 0 114 17 151 71 21 30 25 47 25 113 0
75 -1 79 -35 115 -19 20 -49 43 -67 50 -41 18 -109 17 -148 0z m126 -95 c49
-50 36 -147 -23 -172 -35 -15 -69 -2 -94 36 -25 38 -14 112 21 142 35 31 61
29 96 -6z"/>
<path d="M8485 6220 c-40 -16 -70 -59 -70 -101 0 -54 32 -82 125 -112 52 -16
76 -29 78 -42 8 -40 -56 -47 -100 -10 -29 25 -61 31 -92 19 -25 -10 -19 -29
18 -62 45 -40 97 -56 157 -49 57 7 94 29 115 68 34 67 -1 123 -96 153 -120 38
-132 48 -83 67 21 8 37 5 76 -11 40 -17 55 -20 73 -11 13 6 24 17 24 24 0 18
-39 53 -73 66 -33 13 -123 13 -152 1z"/>
<path d="M9511 6217 c-40 -14 -76 -58 -68 -81 8 -21 80 -22 97 -1 15 18 61 20
78 3 23 -23 11 -38 -45 -53 -120 -34 -153 -60 -153 -121 0 -78 88 -121 180
-89 30 10 47 12 54 5 5 -5 27 -10 48 -10 l38 0 -6 133 c-8 167 -18 198 -64
214 -19 7 -55 12 -80 12 -25 0 -60 -5 -79 -12z m119 -217 c0 -55 -59 -89 -94
-54 -28 27 -15 50 40 69 53 19 54 19 54 -15z"/>
<path d="M9951 6214 c-28 -12 -40 -12 -68 -2 -58 21 -64 2 -61 -182 l3 -155
37 -3 c44 -4 44 -4 52 142 6 106 19 136 61 136 37 0 45 -19 46 -119 2 -141 6
-155 50 -159 43 -4 49 8 49 108 1 127 27 182 77 164 28 -9 28 -10 38 -139 l10
-130 40 0 40 0 3 143 3 143 -35 35 c-41 41 -85 45 -146 14 l-39 -20 -33 20
c-39 23 -80 25 -127 4z"/>
<path d="M10504 6211 c-73 -33 -112 -112 -100 -199 15 -111 104 -168 222 -142
88 20 134 79 134 174 0 142 -127 226 -256 167z m127 -90 c24 -24 29 -38 29
-76 0 -38 -5 -52 -29 -76 -44 -43 -87 -35 -116 21 -19 37 -19 73 0 110 29 57
72 64 116 21z"/>
<path d="M11294 6216 c-42 -19 -64 -52 -64 -99 0 -53 29 -78 128 -111 83 -28
100 -46 63 -66 -31 -16 -57 -12 -89 15 -32 27 -61 31 -93 15 -28 -16 -23 -35
17 -69 43 -35 105 -46 179 -32 66 12 105 54 105 112 0 54 -28 79 -125 109 -91
29 -110 45 -69 60 24 9 37 7 75 -11 36 -17 53 -19 75 -12 36 12 39 24 14 56
-35 45 -149 62 -216 33z"/>
<path d="M10847 6213 c-17 -4 -19 -16 -15 -143 3 -122 6 -142 24 -167 29 -39
91 -51 150 -28 39 15 45 15 67 0 18 -11 31 -13 49 -6 23 9 25 15 31 101 7 108
-2 232 -17 242 -20 14 -64 8 -70 -8 -3 -9 -6 -46 -6 -82 -1 -153 -40 -215
-106 -168 -16 12 -20 30 -24 131 -6 135 -13 146 -83 128z"/>
<path d="M4295 5478 c-3 -7 -4 -117 -3 -243 l3 -230 23 -3 c13 -2 32 4 41 12
16 15 21 15 54 1 20 -8 55 -15 78 -15 35 0 48 6 79 38 46 46 64 103 55 177
-13 103 -67 151 -159 142 -28 -2 -59 -8 -68 -12 -15 -6 -17 2 -20 67 l-3 73
-38 3 c-24 2 -39 -1 -42 -10z m209 -221 c25 -30 19 -143 -9 -163 -54 -40 -104
-2 -113 86 -4 45 -2 52 27 80 35 35 62 34 95 -3z"/>
<path d="M4701 5472 c-15 -28 -2 -59 26 -67 34 -8 60 2 66 27 10 35 -10 58
-48 58 -23 0 -38 -6 -44 -18z"/>
<path d="M5486 5429 c-11 -111 -7 -404 6 -417 16 -16 63 -15 77 2 11 13 17 13
46 0 55 -23 109 -18 145 12 47 40 62 78 62 159 0 80 -15 120 -59 155 -24 19
-37 21 -88 17 -33 -3 -70 -8 -82 -12 -22 -7 -23 -6 -23 69 l0 76 -39 0 -38 0
-7 -61z m211 -161 c20 -16 35 -77 28 -114 -14 -77 -89 -101 -125 -41 -58 94
19 217 97 155z"/>
<path d="M7476 5468 c-12 -45 -7 -443 6 -456 16 -16 48 -15 68 3 15 14 21 14
53 0 78 -32 156 -7 191 61 26 50 28 164 3 211 -33 63 -102 90 -175 68 -26 -8
-48 -15 -49 -15 -2 0 -3 25 -3 56 0 73 -12 94 -54 94 -26 0 -35 -5 -40 -22z
m201 -193 c28 -20 47 -78 38 -121 -19 -104 -130 -97 -142 9 -6 55 9 100 40
115 30 15 39 14 64 -3z"/>
<path d="M9505 5470 c-9 -29 2 -57 25 -63 47 -12 79 19 65 63 -5 15 -15 20
-45 20 -30 0 -40 -5 -45 -20z"/>
<path d="M4955 5351 c-48 -21 -70 -51 -86 -116 -17 -66 2 -144 45 -190 29 -30
40 -35 78 -35 25 0 59 5 77 11 39 14 45 9 36 -31 -11 -48 -45 -59 -101 -32
-82 40 -144 23 -115 -32 23 -41 62 -56 151 -56 91 0 130 15 150 59 16 35 33
261 26 341 -4 45 -11 70 -26 84 -19 19 -21 19 -54 3 -32 -15 -40 -15 -77 -2
-52 19 -55 19 -104 -4z m146 -108 c23 -61 3 -136 -40 -151 -56 -20 -91 16 -91
93 0 55 13 83 43 94 31 12 77 -7 88 -36z"/>
<path d="M6022 5353 c-26 -13 -35 -14 -41 -4 -5 7 -24 11 -47 9 l-39 -3 -3
-158 c-3 -173 3 -197 46 -197 46 0 50 9 58 128 8 124 16 142 64 142 50 0 81
68 41 90 -26 14 -40 12 -79 -7z"/>
<path d="M6238 5359 c-39 -11 -92 -63 -85 -83 2 -6 16 -15 31 -21 21 -7 36 -4
71 15 38 21 47 22 70 12 47 -22 28 -44 -60 -69 -96 -26 -125 -53 -125 -114 0
-59 42 -99 105 -99 25 0 60 6 78 14 28 11 36 11 52 0 10 -8 33 -14 51 -14 l32
0 -5 143 c-6 149 -12 173 -57 202 -30 20 -111 27 -158 14z m102 -258 c-13 -25
-57 -38 -79 -24 -9 6 -16 21 -16 34 0 20 9 27 50 41 l50 16 3 -23 c2 -13 -2
-33 -8 -44z"/>
<path d="M6615 5361 c-45 -12 -73 -32 -90 -66 -32 -68 7 -116 122 -151 85 -26
102 -43 64 -64 -32 -16 -60 -12 -96 16 -27 20 -41 24 -64 19 -40 -9 -46 -20
-27 -50 51 -77 211 -91 278 -25 22 23 28 38 28 72 0 68 -24 87 -152 123 -61
16 -74 36 -37 55 16 9 29 7 63 -9 46 -23 91 -27 101 -10 34 54 -95 115 -190
90z"/>
<path d="M6975 5355 c-54 -19 -75 -47 -75 -101 0 -58 19 -75 119 -109 89 -29
103 -41 76 -62 -28 -20 -65 -16 -105 12 -28 19 -44 24 -68 19 -36 -7 -41 -27
-16 -63 39 -54 181 -71 245 -28 43 29 63 69 55 111 -9 46 -31 63 -127 94 -56
18 -84 32 -84 42 0 22 52 25 95 5 48 -22 94 -17 98 11 4 25 -25 52 -75 70 -49
17 -88 17 -138 -1z"/>
<path d="M8012 5360 c-46 -7 -84 -31 -116 -74 -15 -20 -22 -46 -24 -99 -3 -62
-1 -77 20 -107 74 -110 261 -102 317 14 54 111 -6 246 -118 265 -20 4 -55 4
-79 1z m77 -90 c70 -37 38 -190 -40 -190 -46 0 -72 30 -77 91 -3 47 -1 57 22
82 26 28 63 35 95 17z"/>
<path d="M8858 5351 c-40 -16 -49 -17 -59 -5 -6 8 -27 14 -45 14 l-34 0 -2
-82 c-3 -145 4 -263 16 -270 18 -12 44 -9 60 8 12 12 16 37 16 103 0 109 12
146 50 160 24 8 34 6 52 -9 21 -16 23 -29 28 -132 5 -120 10 -138 40 -138 49
0 50 3 50 154 0 158 -6 177 -66 202 -42 18 -48 17 -106 -5z"/>
<path d="M9710 5357 c-25 -12 -25 -13 -28 -169 -3 -170 2 -188 53 -188 46 0
55 23 55 133 0 122 11 147 66 147 46 0 54 -23 54 -149 0 -118 9 -137 63 -127
l37 7 0 137 c0 162 -12 193 -79 213 -33 10 -47 9 -90 -7 -47 -17 -51 -17 -69
-1 -22 20 -29 21 -62 4z"/>
<path d="M10190 5359 c-114 -24 -148 -223 -54 -317 33 -33 37 -34 92 -29 31 3
67 8 80 12 17 6 22 3 22 -12 0 -28 -26 -60 -55 -67 -16 -4 -39 1 -65 14 -21
11 -55 20 -75 20 -32 0 -35 -3 -35 -28 0 -54 56 -84 155 -84 151 1 167 29 173
294 l4 188 -28 11 c-23 8 -35 7 -61 -6 -17 -10 -37 -14 -43 -10 -24 15 -75 21
-110 14z m111 -96 c39 -33 29 -140 -16 -169 -32 -21 -61 -10 -86 29 -22 36
-23 67 -6 117 17 49 66 59 108 23z"/>
<path d="M4704 5349 c-4 -7 -8 -84 -8 -171 -1 -169 1 -178 49 -178 44 0 48 12
52 147 3 70 1 146 -4 168 -8 37 -12 40 -45 43 -21 2 -39 -2 -44 -9z"/>
<path d="M8307 5353 c-11 -11 -8 -258 4 -292 20 -56 100 -78 174 -47 29 13 35
13 46 0 12 -15 46 -18 73 -8 14 5 16 29 16 164 0 87 -3 165 -6 174 -4 11 -19
16 -44 16 -37 0 -37 -1 -44 -46 -3 -26 -6 -81 -6 -124 0 -61 -4 -80 -17 -92
-29 -25 -54 -29 -78 -14 -20 13 -22 26 -28 136 -4 67 -9 126 -13 131 -6 10
-67 12 -77 2z"/>
<path d="M9180 5337 c-52 -35 -75 -82 -74 -153 1 -111 52 -174 147 -182 69 -5
119 11 152 49 30 36 32 65 6 79 -31 16 -48 12 -81 -20 -61 -60 -120 -22 -120
77 0 44 5 58 25 78 30 31 46 31 83 0 30 -26 49 -29 90 -19 30 9 22 38 -24 82
-31 30 -39 32 -102 32 -55 0 -76 -5 -102 -23z"/>
<path d="M9505 5225 c-6 -117 -4 -200 7 -210 2 -2 15 -6 29 -10 51 -13 59 10
59 168 0 182 -2 187 -50 187 l-38 0 -7 -135z"/>
<path d="M2629 4900 c-63 -33 -65 -41 -30 -116 48 -103 46 -113 -51 -181 -46
-33 -200 -133 -343 -223 -402 -254 -513 -328 -525 -349 -7 -15 -7 -33 1 -65
13 -54 39 -80 68 -71 24 7 538 330 888 557 53 35 100 58 111 56 12 -2 39 -31
64 -68 36 -55 48 -65 75 -68 22 -2 38 3 54 19 34 34 21 83 -59 212 -38 62 -96
157 -128 212 -32 55 -66 101 -74 102 -8 1 -31 -6 -51 -17z"/>
<path d="M12225 4812 c-47 -29 -125 -121 -154 -182 -21 -44 -26 -70 -26 -130
0 -106 38 -182 146 -289 155 -156 439 -365 584 -432 91 -42 219 -52 281 -23
57 27 168 144 189 198 26 68 17 176 -21 247 -51 95 -296 319 -367 335 -36 8
-44 0 -133 -119 -82 -109 -91 -141 -47 -158 37 -14 83 -2 118 32 28 26 34 28
68 18 55 -15 181 -120 205 -172 43 -90 36 -198 -14 -217 -33 -13 -90 -13 -133
0 -88 25 -315 172 -479 309 -199 168 -232 211 -232 311 0 56 19 103 47 115 10
5 59 9 110 9 51 1 95 4 98 7 3 4 10 34 16 68 16 88 11 91 -120 91 -85 0 -112
-4 -136 -18z"/>
<path d="M5917 4623 c-4 -3 -7 -38 -7 -76 0 -62 -2 -68 -17 -62 -10 5 -46 10
-81 13 -61 4 -63 4 -96 -31 -60 -64 -69 -160 -25 -254 29 -60 73 -79 148 -63
31 6 61 11 66 11 6 -1 28 -4 51 -7 l41 -6 6 39 c9 49 9 356 1 406 -6 35 -9 37
-44 37 -20 0 -40 -3 -43 -7z m-53 -203 c49 -18 59 -137 15 -181 -25 -25 -63
-24 -89 3 -29 31 -28 125 1 162 22 28 34 31 73 16z"/>
<path d="M6287 4623 c-3 -4 -8 -106 -12 -225 -6 -171 -5 -221 5 -233 9 -11 31
-15 74 -15 33 0 89 -1 123 -3 53 -2 65 1 88 23 40 36 55 80 55 156 0 76 -24
130 -70 157 -32 19 -111 22 -142 6 -11 -6 -22 -8 -26 -5 -3 3 -8 36 -11 74
l-6 67 -37 3 c-20 2 -38 -1 -41 -5z m204 -212 c34 -27 40 -125 9 -163 -15 -19
-31 -28 -51 -28 -57 0 -89 102 -54 170 23 44 58 52 96 21z"/>
<path d="M7115 4588 c-3 -24 -5 -131 -3 -238 l3 -195 40 0 40 0 7 50 c8 66 8
318 0 375 -7 43 -8 45 -44 48 -36 3 -37 3 -43 -40z"/>
<path d="M7295 4618 c-3 -7 -4 -115 -3 -238 l3 -225 45 0 45 0 0 235 0 235
-43 3 c-28 2 -44 -1 -47 -10z"/>
<path d="M8315 4618 c-3 -7 -4 -112 -3 -232 3 -195 5 -220 20 -230 13 -8 26
-7 48 1 25 9 38 9 65 -3 78 -32 148 -6 184 68 40 83 24 196 -35 247 -29 26
-43 31 -85 31 -27 0 -63 -7 -79 -15 l-29 -15 -3 77 -3 78 -38 3 c-24 2 -39 -1
-42 -10z m202 -212 c25 -22 28 -31 28 -84 0 -70 -21 -102 -66 -102 -54 0 -85
63 -68 139 8 36 40 71 65 71 7 0 26 -11 41 -24z"/>
<path d="M9747 4623 c-4 -3 -7 -31 -7 -62 0 -72 -8 -85 -44 -71 -67 25 -145 1
-183 -57 -14 -20 -18 -47 -18 -108 0 -96 20 -140 79 -169 35 -17 46 -18 97 -7
32 6 76 8 99 5 31 -5 44 -3 51 7 10 16 12 428 3 453 -6 16 -64 23 -77 9z m-55
-204 c29 -16 50 -73 42 -117 -10 -59 -29 -82 -69 -82 -29 0 -39 6 -55 33 -31
50 -27 112 9 148 32 32 42 34 73 18z"/>
<path d="M4950 4489 c-30 -12 -59 -47 -60 -71 0 -23 53 -24 105 -2 30 12 44
13 62 5 44 -20 24 -42 -62 -67 -96 -28 -115 -47 -115 -114 0 -42 4 -52 32 -75
28 -24 37 -26 82 -20 28 4 84 7 125 7 l74 0 -6 133 c-8 153 -15 178 -56 200
-34 17 -141 20 -181 4z m130 -214 c0 -27 -31 -65 -54 -65 -31 0 -46 13 -46 40
0 22 6 31 28 38 50 19 72 15 72 -13z"/>
<path d="M5274 4487 c-2 -7 -3 -85 -2 -172 l3 -160 40 0 40 0 11 110 c12 127
16 138 51 154 21 9 30 9 49 -4 13 -8 25 -21 25 -28 1 -6 4 -61 8 -122 l6 -110
37 -3 c54 -5 59 12 51 164 -6 123 -8 130 -34 156 -23 23 -36 28 -79 28 -28 0
-64 -7 -81 -15 -27 -14 -32 -14 -51 0 -27 18 -67 20 -74 2z"/>
<path d="M6759 4477 c-42 -28 -77 -79 -85 -123 -13 -72 20 -148 85 -191 45
-30 141 -32 187 -4 87 53 120 167 73 251 -34 60 -90 90 -166 90 -46 0 -68 -5
-94 -23z m156 -89 c23 -27 26 -39 22 -72 -18 -136 -157 -124 -157 14 0 84 83
120 135 58z"/>
<path d="M7528 4475 c-50 -34 -72 -93 -66 -181 4 -64 6 -68 50 -110 45 -42 49
-44 108 -44 39 0 72 6 90 16 31 19 64 69 55 84 -10 17 -63 11 -107 -11 l-41
-21 -22 24 c-13 12 -26 33 -30 46 -6 22 -6 22 104 22 l111 0 0 48 c0 92 -63
152 -160 152 -42 0 -64 -6 -92 -25z m130 -61 c12 -8 22 -24 22 -35 0 -17 -7
-19 -60 -19 -33 0 -60 3 -60 6 0 16 24 46 43 54 30 12 30 12 55 -6z"/>
<path d="M7871 4486 c-8 -9 -11 -64 -9 -172 l3 -159 40 0 40 0 10 111 c10 117
22 144 59 144 36 0 68 29 64 58 -2 23 -9 28 -37 30 -18 2 -47 -2 -63 -9 -22
-9 -32 -9 -41 0 -15 15 -52 14 -66 -3z"/>
<path d="M8775 4486 c-32 -14 -48 -30 -58 -58 -11 -30 42 -39 97 -15 38 16 51
18 71 9 46 -21 30 -39 -59 -67 -97 -29 -126 -55 -126 -115 0 -68 61 -110 138
-95 20 4 69 7 108 6 l71 -1 -4 133 c-5 154 -14 184 -59 203 -42 17 -139 17
-179 0z m135 -211 c0 -29 -32 -65 -58 -65 -28 0 -55 24 -50 45 4 23 43 45 81
45 22 0 27 -4 27 -25z"/>
<path d="M9111 4486 c-8 -9 -11 -64 -9 -172 l3 -159 35 -3 c51 -5 60 14 60
133 0 89 3 104 20 120 22 20 66 23 83 6 6 -6 14 -64 18 -129 4 -64 8 -121 8
-125 1 -5 20 -7 44 -5 l42 3 3 128 c3 142 -8 185 -54 206 -36 16 -98 14 -140
-6 -34 -17 -36 -17 -45 0 -12 20 -52 22 -68 3z"/>
<path d="M11740 4184 c-29 -25 -60 -72 -60 -92 0 -5 26 -31 58 -57 31 -26 143
-127 247 -225 221 -207 673 -610 684 -610 4 0 24 17 45 39 32 33 37 44 34 77
-3 33 -11 44 -58 82 -30 24 -140 123 -244 220 -471 440 -640 592 -657 592 -10
0 -31 -12 -49 -26z"/>
<path d="M3190 4099 c-23 -17 -201 -189 -395 -382 -401 -400 -408 -411 -408
-541 0 -92 20 -130 111 -218 80 -78 102 -88 180 -88 81 1 121 23 247 136 156
140 664 644 680 674 18 34 8 76 -22 100 -24 19 -27 19 -55 2 -17 -9 -134 -120
-262 -247 -281 -279 -495 -479 -537 -501 -39 -20 -81 -13 -126 22 -78 59 -84
146 -15 238 23 30 192 204 377 388 361 359 355 351 320 418 -20 38 -41 38 -95
-1z"/>
<path d="M11388 3815 c-110 -107 -148 -150 -148 -168 0 -31 39 -85 142 -195
80 -85 202 -217 562 -610 93 -101 175 -186 182 -189 8 -3 43 21 82 56 37 34
109 99 160 144 50 45 92 89 92 98 0 20 -75 99 -94 99 -17 0 -54 -28 -133 -101
-95 -87 -92 -88 -196 22 -144 154 -187 208 -187 236 0 18 20 46 70 97 77 79
83 99 50 154 -18 30 -34 37 -68 33 -8 -1 -46 -29 -85 -62 -39 -33 -81 -62 -93
-65 -31 -8 -70 23 -170 135 -113 126 -113 132 1 251 47 49 85 96 85 106 0 17
-83 104 -98 104 -4 -1 -73 -66 -154 -145z"/>
<path d="M8566 3801 c-63 -90 -242 -234 -353 -283 -36 -16 -65 -19 -166 -19
-142 1 -154 8 -165 87 -5 35 -12 50 -25 52 -17 3 -56 -32 -91 -82 l-18 -28
-24 36 c-18 26 -24 49 -24 88 0 29 -4 59 -9 66 -5 8 -35 16 -70 19 -59 6 -61
5 -61 -18 0 -12 5 -48 11 -78 11 -51 10 -60 -10 -98 -40 -80 -78 -44 -118 112
-8 33 -18 63 -21 67 -4 4 -35 10 -69 14 -55 6 -64 4 -69 -11 -5 -13 1 -24 19
-37 32 -23 34 -46 8 -96 -38 -74 -101 -106 -101 -52 0 12 -14 34 -31 50 -29
26 -31 31 -20 61 14 40 14 86 1 94 -5 3 -42 9 -82 12 l-71 6 6 -42 c3 -23 12
-50 21 -60 20 -22 20 -54 0 -94 -33 -65 -38 -67 -148 -67 -98 1 -225 18 -276
38 -14 5 -45 26 -69 46 -23 20 -52 36 -63 36 -19 0 -20 -4 -15 -43 9 -64 55
-204 74 -222 23 -24 55 -15 64 18 12 45 28 57 75 57 42 0 44 -1 44 -29 0 -16
-18 -67 -40 -112 -46 -95 -50 -141 -19 -205 38 -80 137 -143 280 -179 75 -19
93 -37 115 -114 26 -90 36 -101 95 -101 58 0 95 28 105 80 8 37 26 53 56 48
19 -3 24 -11 31 -57 10 -76 17 -81 102 -81 75 0 85 5 110 54 8 14 19 20 35 18
30 -3 31 -4 39 -44 6 -31 9 -33 56 -36 72 -5 92 4 115 47 18 37 25 41 127 75
61 20 166 44 242 56 74 11 141 25 149 32 10 9 13 27 10 65 -6 68 -40 106 -114
128 -63 18 -108 54 -135 107 -29 58 -23 82 23 86 50 4 98 -18 255 -121 105
-69 149 -106 220 -183 86 -93 134 -131 153 -119 5 3 7 25 4 48 -2 23 -18 175
-34 337 -62 606 -62 610 -95 610 -7 0 -24 -18 -39 -39z m-1040 -533 c-11 -74
-26 -81 -26 -12 0 33 3 64 7 68 15 15 25 -15 19 -56z m-546 22 c6 -12 9 -65 8
-127 -3 -103 -4 -108 -25 -111 -25 -4 -150 42 -171 63 -14 13 -20 160 -8 173
9 9 77 20 133 21 43 1 54 -3 63 -19z m887 -52 c16 -15 23 -31 21 -48 -3 -22
-9 -25 -44 -28 -61 -4 -90 35 -68 93 9 22 59 13 91 -17z m-606 -195 c-8 -14
-10 -2 -11 48 0 36 3 69 8 73 11 12 14 -102 3 -121z m276 -20 c-2 -16 -4 -5
-4 22 0 28 2 40 4 28 2 -13 2 -35 0 -50z"/>
<path d="M2035 3700 c-35 -13 -49 -39 -49 -90 -2 -83 63 -127 138 -96 43 18
60 54 52 111 -8 68 -73 103 -141 75z"/>
<path d="M11083 3533 c-13 -2 -32 -16 -43 -30 -38 -48 -28 -82 84 -292 57
-108 120 -232 140 -276 20 -44 64 -128 96 -186 61 -107 71 -139 46 -139 -15 0
-8 -7 -249 245 -418 437 -406 427 -476 384 -28 -17 -32 -24 -28 -49 4 -15 92
-203 197 -417 104 -213 190 -396 190 -406 0 -39 15 -54 -385 376 -163 175
-246 257 -260 257 -27 -1 -97 -33 -114 -53 -12 -15 -10 -22 14 -54 15 -21 208
-218 429 -438 221 -220 419 -421 440 -448 22 -27 47 -47 58 -47 35 0 75 29 93
66 17 36 17 39 -5 93 -13 31 -96 202 -186 381 -147 292 -183 379 -155 368 5
-1 147 -145 316 -318 169 -173 312 -314 318 -313 7 1 34 10 60 19 74 26 92
-24 -260 724 -116 245 -223 471 -239 503 -28 57 -32 59 -81 50z"/>
<path d="M10134 2871 c-23 -10 -45 -24 -48 -30 -4 -6 43 -113 105 -238 82
-167 109 -231 102 -243 -15 -24 -193 -110 -229 -110 -32 0 -33 2 -124 188 -50
103 -94 202 -97 221 -6 32 -7 33 -45 28 -66 -9 -88 -30 -88 -86 0 -43 30 -108
280 -609 l279 -562 38 0 c21 0 49 7 62 16 41 29 25 81 -102 342 -64 131 -119
246 -122 258 -8 31 19 57 110 109 124 70 117 75 223 -127 103 -197 137 -270
162 -348 21 -66 36 -71 110 -39 l52 22 -5 41 c-6 46 -538 1122 -574 1162 -26
29 -36 29 -89 5z"/>
<path d="M4809 2793 c-42 -66 -532 -1048 -549 -1101 -9 -29 -11 -49 -4 -59 5
-8 61 -39 124 -69 113 -53 117 -54 205 -54 122 0 143 12 222 129 103 154 130
261 99 391 -14 60 -14 66 1 78 9 6 25 12 35 12 69 0 180 134 228 276 24 70 27
201 5 243 -36 71 -234 201 -304 201 -27 0 -36 -7 -62 -47z m178 -185 c21 -19
23 -31 23 -107 0 -97 -16 -143 -71 -206 -39 -44 -83 -65 -134 -65 -48 0 -75
16 -75 44 0 21 140 325 163 354 15 18 65 8 94 -20z m-274 -513 c34 -22 47 -57
47 -126 0 -52 -6 -73 -40 -138 -45 -86 -90 -138 -127 -147 -32 -8 -123 2 -137
16 -14 14 -2 44 99 254 83 172 85 175 110 166 14 -5 35 -16 48 -25z"/>
<path d="M3033 2620 c-52 -22 -57 -116 -8 -157 54 -47 146 -21 166 47 19 62
-16 104 -97 115 -22 2 -49 0 -61 -5z"/>
<path d="M9487 2609 c-101 -24 -202 -103 -247 -194 -24 -48 -25 -59 -25 -230
0 -157 3 -192 24 -270 89 -342 211 -575 341 -652 53 -32 57 -33 167 -33 127 0
167 11 202 56 18 23 21 38 19 88 -3 61 -3 61 -33 60 -16 -1 -50 -9 -75 -19
-52 -19 -114 -14 -172 16 -100 51 -208 265 -258 509 -28 140 -29 381 0 427 25
42 55 61 119 73 29 5 57 13 63 16 14 9 4 130 -12 149 -14 16 -54 18 -113 4z"/>
<path d="M5422 2573 c-10 -18 -133 -419 -282 -919 -83 -279 -100 -376 -69
-395 19 -12 96 -22 113 -16 9 4 22 32 31 64 60 218 140 482 152 502 10 14 18
20 24 14 6 -6 14 -135 20 -289 13 -386 13 -382 55 -400 45 -19 120 -29 127
-17 3 5 -1 108 -8 229 -8 120 -15 276 -15 347 l0 127 26 0 c71 0 148 72 210
198 38 75 38 80 42 208 4 110 1 137 -13 168 -29 60 -106 111 -229 150 -149 49
-172 52 -184 29z m194 -198 c18 -14 38 -41 44 -61 23 -69 -9 -222 -61 -295
-39 -55 -161 -92 -175 -54 -4 9 1 46 11 83 19 77 93 308 107 335 12 24 35 21
74 -8z"/>
<path d="M8669 2350 c-63 -8 -97 -28 -153 -91 -56 -61 -70 -101 -70 -199 -1
-106 20 -177 77 -262 37 -55 61 -76 198 -168 204 -138 218 -149 234 -196 15
-40 20 -188 9 -243 -10 -49 -44 -61 -173 -61 -60 0 -112 -4 -115 -8 -3 -5 5
-42 18 -82 22 -73 23 -75 62 -83 58 -13 181 0 230 24 49 23 103 79 136 141 20
38 23 57 23 169 0 124 0 125 -38 201 -46 93 -95 141 -278 265 -74 51 -144 101
-156 112 -28 27 -43 80 -43 156 0 143 32 175 178 175 64 0 92 4 92 12 0 25
-34 133 -44 140 -13 9 -110 8 -187 -2z"/>
<path d="M6299 2283 c-6 -16 -19 -50 -29 -78 -10 -27 -83 -212 -163 -410 -133
-330 -196 -483 -288 -698 -38 -90 -37 -92 47 -103 93 -11 92 -12 138 114 24
67 48 118 59 124 20 11 213 -14 246 -31 16 -9 19 -27 23 -146 2 -75 9 -140 14
-145 6 -6 45 -13 88 -17 l79 -6 -7 114 c-3 63 -15 357 -26 654 -11 297 -23
559 -26 582 -7 59 -25 73 -90 73 -50 0 -55 -2 -65 -27z m37 -500 c-9 -287 -18
-418 -29 -429 -4 -4 -44 -7 -88 -7 -112 2 -117 8 -89 107 18 64 88 276 172
519 36 105 42 75 34 -190z"/>
<path d="M8171 2262 c-5 -9 -7 -37 -5 -62 2 -25 8 -106 14 -180 6 -74 26 -283
46 -463 20 -181 34 -331 31 -334 -12 -12 -26 11 -53 84 -135 379 -316 868
-333 901 -21 41 -23 42 -70 42 -82 0 -84 -6 -76 -194 19 -491 57 -1212 64
-1219 11 -11 108 12 126 30 25 24 16 249 -30 748 -25 270 -22 318 14 234 10
-24 90 -246 176 -494 86 -247 164 -458 173 -468 13 -14 29 -17 81 -15 l66 3 3
155 c3 153 -15 576 -43 1005 -17 253 -13 245 -112 245 -49 0 -64 -4 -72 -18z"/>
<path d="M6864 2238 c-15 -24 -48 -989 -39 -1128 8 -124 30 -184 85 -234 50
-45 93 -56 215 -56 77 0 110 5 142 19 68 31 111 112 132 247 26 170 69 1110
52 1127 -12 12 -131 11 -143 -1 -5 -5 -13 -121 -18 -258 -13 -309 -38 -771
-46 -842 -4 -29 -15 -63 -26 -77 -18 -23 -26 -25 -102 -25 -73 0 -85 3 -104
23 -21 23 -22 30 -22 274 0 221 9 524 25 811 4 83 2 95 -15 112 -23 23 -123
29 -136 8z"/>
</g>
</svg>
